<svg width="201" height="34" viewBox="0 0 201 34" fill="none" xmlns="http://www.w3.org/2000/svg">
<path fill-rule="evenodd" clip-rule="evenodd" d="M17.0485 0C7.96159 0 0.595215 7.4476 0.595215 16.6347C0.595215 25.8218 7.96159 33.2694 17.0485 33.2694H34.8286C45.088 33.2694 53.4048 24.8608 53.4048 14.4883V0H17.0485ZM10.6795 16.6347C10.6795 12.4925 14.0206 9.12225 18.1571 9.12225H28.9397C27.2702 10.6717 26.1188 12.7827 25.778 15.159H17.3138V17.842H25.5385C24.964 21.4124 21.8832 24.1471 18.1571 24.1471C14.0206 24.1471 10.6795 20.7769 10.6795 16.6347ZM45.4436 9.12225H35.7574C31.6536 9.12225 28.3269 12.4857 28.3269 16.6347C28.3269 20.7837 31.6536 24.1471 35.7574 24.1471C39.8611 24.1471 43.1879 20.7837 43.1879 16.6347H45.8416C45.8416 22.2655 41.3268 26.8301 35.7574 26.8301C31.9929 26.8301 28.7102 24.7446 26.9779 21.654C25.2364 24.7464 21.9358 26.8301 18.1571 26.8301C12.5684 26.8301 8.02572 22.2723 8.02572 16.6347C8.02572 10.9971 12.5684 6.43924 18.1571 6.43924H35.7574H45.4436V9.12225Z" fill="#2E2F33"/>
<path d="M194.022 11.2314C197.921 11.2314 201 14.5528 201 18.6973C201 22.8417 197.921 26.1632 194.022 26.1632C191.53 26.1632 189.653 24.9875 188.598 22.9887V25.8693H185.871V5.29395H188.598V14.4059C189.653 12.4071 191.53 11.2314 194.022 11.2314ZM193.465 23.5766C196.191 23.5766 198.332 21.4309 198.332 18.6973C198.332 15.9637 196.191 13.818 193.465 13.818C190.679 13.818 188.598 15.8755 188.598 18.6973C188.598 21.519 190.679 23.5766 193.465 23.5766Z" fill="#2E2F33"/>
<path d="M181.443 11.5254H184.14V25.8693H181.443V23.3415C180.534 25.1345 178.921 26.1633 176.839 26.1633C173.174 26.1633 170.858 23.6942 170.858 19.7555V11.5254H173.585V19.4322C173.585 21.9306 175.11 23.5766 177.455 23.5766C179.889 23.5766 181.443 21.9306 181.443 19.4322V11.5254Z" fill="#2E2F33"/>
<path d="M169.166 5.29395V25.8693H166.44V5.29395H169.166Z" fill="#2E2F33"/>
<path d="M155.892 26.1632C150.087 26.1632 145.63 21.5484 145.63 15.5228C145.63 9.58536 150.087 5 155.892 5C160.495 5 164.541 7.96872 165.274 12.1132H162.137C161.433 9.52657 158.883 7.73358 155.892 7.73358C151.728 7.73358 148.533 11.1432 148.533 15.5228C148.533 19.9906 151.728 23.4296 155.892 23.4296C158.941 23.4296 161.492 21.519 162.166 18.7855H165.333C164.483 23.1651 160.612 26.1632 155.892 26.1632Z" fill="#2E2F33"/>
<path d="M133.931 11.2314C137.45 11.2314 139.766 13.5241 139.766 17.1983V25.8693H137.068V17.7568C137.068 15.3171 135.72 13.8181 133.521 13.8181C131.732 13.8181 129.885 14.9644 129.885 17.7568V25.8693H127.188V17.7568C127.188 15.3171 125.839 13.8181 123.611 13.8181C121.881 13.8181 120.034 14.9056 120.034 17.7568V25.8693H117.307V11.5254H120.034V13.7593C121.06 11.8781 122.907 11.2314 124.519 11.2314C126.777 11.2314 128.36 12.1426 129.211 14.0532C130.032 12.2896 131.908 11.2314 133.931 11.2314Z" fill="#2E2F33"/>
<path d="M108.978 11.2314C113.112 11.2314 116.366 14.4941 116.366 18.7267C116.366 22.93 113.112 26.1632 108.978 26.1632C104.814 26.1632 101.589 22.93 101.589 18.7267C101.589 14.4941 104.814 11.2314 108.978 11.2314ZM108.978 13.8181C106.28 13.8181 104.228 15.9344 104.228 18.7267C104.228 21.4603 106.28 23.5766 108.978 23.5766C111.646 23.5766 113.727 21.4603 113.727 18.7267C113.727 15.9344 111.646 13.8181 108.978 13.8181Z" fill="#2E2F33"/>
<path d="M93.4358 11.2314C97.5699 11.2314 100.824 14.4941 100.824 18.7267C100.824 22.93 97.5699 26.1632 93.4358 26.1632C89.2723 26.1632 86.0471 22.93 86.0471 18.7267C86.0471 14.4941 89.2723 11.2314 93.4358 11.2314ZM93.4358 13.8181C90.7383 13.8181 88.6859 15.9344 88.6859 18.7267C88.6859 21.4603 90.7383 23.5766 93.4358 23.5766C96.1039 23.5766 98.1856 21.4603 98.1856 18.7267C98.1856 15.9344 96.1039 13.8181 93.4358 13.8181Z" fill="#2E2F33"/>
<path d="M84.952 11.2607C85.3918 11.2607 85.8609 11.3195 86.2714 11.4371V13.9355C85.8316 13.7886 85.3332 13.7004 84.8641 13.7004C82.7237 13.7004 81.0231 15.2876 81.0231 17.7861V25.8692H78.2964V11.5253H81.0231V13.6122C81.8734 12.1719 83.2515 11.2607 84.952 11.2607Z" fill="#2E2F33"/>
<path d="M77.0255 14.641C77.1135 15.0819 77.1428 15.7873 77.1428 16.3164C77.1428 22.0481 72.8914 26.1632 67.2913 26.1632C61.4566 26.1632 57 21.5484 57 15.5522C57 9.58536 61.4566 5 67.2913 5C71.6893 5 75.7941 8.02751 76.703 11.5547H73.5071C72.6569 9.32082 69.9594 7.73358 67.2913 7.73358C63.1279 7.73358 59.9027 11.1432 59.9027 15.5522C59.9027 19.9906 63.1279 23.4296 67.4672 23.4296C71.0736 23.4296 73.8883 20.8724 74.3281 17.3746H67.5552V14.641H77.0255Z" fill="#2E2F33"/>
</svg>
