<svg width="189" height="28" viewBox="0 0 189 28" fill="none" xmlns="http://www.w3.org/2000/svg">
<path d="M179.841 8.24617C184.959 8.24617 189 12.6406 189 18.1239C189 23.6073 184.959 28.0017 179.841 28.0017C176.57 28.0017 174.107 26.4461 172.721 23.8017V27.6128H169.143V0.390625H172.721V12.4462C174.107 9.80172 176.57 8.24617 179.841 8.24617ZM179.11 24.5795C182.688 24.5795 185.498 21.7406 185.498 18.1239C185.498 14.5073 182.688 11.6684 179.11 11.6684C175.454 11.6684 172.721 14.3906 172.721 18.1239C172.721 21.8573 175.454 24.5795 179.11 24.5795Z" fill="#2E2F33"/>
<path d="M163.331 8.63281H166.871V27.6106H163.331V24.2661C162.138 26.6383 160.021 27.9994 157.289 27.9994C152.479 27.9994 149.438 24.7328 149.438 19.5217V8.63281H153.017V19.0939C153.017 22.3995 155.018 24.5772 158.097 24.5772C161.291 24.5772 163.331 22.3995 163.331 19.0939V8.63281Z" fill="#2E2F33"/>
<path d="M147.219 0.390625V27.6128H143.64V0.390625H147.219Z" fill="#2E2F33"/>
<path d="M129.796 28C122.176 28 116.327 21.8944 116.327 13.9222C116.327 6.06666 122.176 0 129.796 0C135.838 0 141.148 3.92777 142.11 9.41109H137.993C137.069 5.98888 133.721 3.61666 129.796 3.61666C124.331 3.61666 120.137 8.12776 120.137 13.9222C120.137 19.8333 124.331 24.3833 129.796 24.3833C133.798 24.3833 137.146 21.8555 138.031 18.2389H142.187C141.071 24.0333 135.992 28 129.796 28Z" fill="#2E2F33"/>
<path d="M100.972 8.24609C105.59 8.24609 108.63 11.2794 108.63 16.1405V27.6127H105.09V16.8794C105.09 13.6516 103.319 11.6683 100.433 11.6683C98.0857 11.6683 95.6613 13.185 95.6613 16.8794V27.6127H92.1209V16.8794C92.1209 13.6516 90.3507 11.6683 87.4261 11.6683C85.1556 11.6683 82.7312 13.1072 82.7312 16.8794V27.6127H79.1523V8.63498H82.7312V11.5905C84.0781 9.10165 86.5025 8.24609 88.619 8.24609C91.5822 8.24609 93.6602 9.45165 94.7762 11.9794C95.8537 9.64609 98.3166 8.24609 100.972 8.24609Z" fill="#2E2F33"/>
<path d="M68.221 8.24609C73.647 8.24609 77.9186 12.5628 77.9186 18.1627C77.9186 23.7238 73.647 28.0016 68.221 28.0016C62.7565 28.0016 58.5234 23.7238 58.5234 18.1627C58.5234 12.5628 62.7565 8.24609 68.221 8.24609ZM68.221 11.6683C64.6806 11.6683 61.9869 14.4683 61.9869 18.1627C61.9869 21.7794 64.6806 24.5794 68.221 24.5794C71.7229 24.5794 74.4552 21.7794 74.4552 18.1627C74.4552 14.4683 71.7229 11.6683 68.221 11.6683Z" fill="#2E2F33"/>
<path d="M47.8216 8.24609C53.2476 8.24609 57.5192 12.5628 57.5192 18.1627C57.5192 23.7238 53.2476 28.0016 47.8216 28.0016C42.3571 28.0016 38.124 23.7238 38.124 18.1627C38.124 12.5628 42.3571 8.24609 47.8216 8.24609ZM47.8216 11.6683C44.2812 11.6683 41.5874 14.4683 41.5874 18.1627C41.5874 21.7794 44.2812 24.5794 47.8216 24.5794C51.3235 24.5794 54.0558 21.7794 54.0558 18.1627C54.0558 14.4683 51.3235 11.6683 47.8216 11.6683Z" fill="#2E2F33"/>
<path d="M36.6867 8.28516C37.2639 8.28516 37.8796 8.36293 38.4184 8.51849V11.824C37.8412 11.6296 37.187 11.5129 36.5712 11.5129C33.762 11.5129 31.53 13.6129 31.53 16.9185V27.6129H27.9512V8.63515H31.53V11.3963C32.646 9.49071 34.4547 8.28516 36.6867 8.28516Z" fill="#2E2F33"/>
<path d="M26.2835 12.7555C26.399 13.3389 26.4375 14.2722 26.4375 14.9722C26.4375 22.5555 20.8575 28 13.5073 28C5.84934 28 0 21.8944 0 13.9611C0 6.06666 5.84934 0 13.5073 0C19.2797 0 24.6673 4.00555 25.8602 8.67221H21.6656C20.5496 5.71666 17.0093 3.61666 13.5073 3.61666C8.04284 3.61666 3.80976 8.12776 3.80976 13.9611C3.80976 19.8333 8.04284 24.3833 13.7382 24.3833C18.4716 24.3833 22.1659 21 22.7431 16.3722H13.8537V12.7555H26.2835Z" fill="#2E2F33"/>
</svg>
